<svg id="svg" xmlns="http://www.w3.org/2000/svg" xmlns:xlink="http://www.w3.org/1999/xlink" width="400" height="22" viewBox="0, 0, 400,22"><g id="svgg"><path id="path0" d="M0.000 11.928 L 0.000 22.667 200.000 22.667 L 400.000 22.667 400.000 11.928 L 400.000 1.190 398.797 1.186 C 398.135 1.184,397.547 1.258,397.489 1.350 C 397.431 1.444,396.696 1.517,395.824 1.516 C 394.956 1.514,394.215 1.588,394.158 1.681 C 394.101 1.773,393.425 1.849,392.656 1.851 C 391.886 1.853,391.211 1.928,391.155 2.019 C 391.098 2.111,390.349 2.184,389.490 2.183 C 388.587 2.181,387.883 2.253,387.821 2.353 C 387.760 2.452,387.115 2.522,386.323 2.517 C 385.547 2.512,384.885 2.583,384.826 2.678 C 384.769 2.771,384.092 2.849,383.322 2.851 C 382.553 2.853,381.878 2.928,381.821 3.019 C 381.765 3.111,381.016 3.184,380.157 3.183 C 379.289 3.181,378.549 3.254,378.491 3.347 C 378.435 3.439,377.759 3.516,376.989 3.518 C 376.220 3.519,375.544 3.595,375.488 3.686 C 375.432 3.777,374.683 3.851,373.824 3.849 C 372.956 3.848,372.215 3.921,372.158 4.014 C 372.101 4.106,371.425 4.183,370.656 4.184 C 369.886 4.186,369.211 4.261,369.156 4.351 C 369.100 4.441,368.425 4.516,367.656 4.518 C 366.886 4.519,366.211 4.595,366.155 4.686 C 366.098 4.777,365.349 4.851,364.490 4.849 C 363.622 4.848,362.882 4.921,362.825 5.014 C 362.768 5.106,362.092 5.183,361.322 5.184 C 360.553 5.186,359.878 5.262,359.821 5.353 C 359.765 5.444,359.016 5.517,358.157 5.516 C 357.289 5.514,356.549 5.588,356.491 5.681 C 356.435 5.773,355.759 5.849,354.989 5.851 C 354.220 5.853,353.545 5.928,353.489 6.018 C 353.434 6.108,352.759 6.183,351.989 6.184 C 351.220 6.186,350.544 6.262,350.488 6.353 C 350.432 6.444,349.683 6.517,348.824 6.516 C 347.956 6.514,347.215 6.588,347.158 6.681 C 347.101 6.773,346.425 6.849,345.656 6.851 C 344.886 6.853,344.211 6.928,344.155 7.019 C 344.098 7.111,343.349 7.184,342.490 7.183 C 341.622 7.181,340.882 7.254,340.825 7.347 C 340.768 7.439,340.092 7.516,339.322 7.518 C 338.553 7.519,337.878 7.595,337.821 7.686 C 337.765 7.777,337.016 7.851,336.157 7.849 C 335.253 7.848,334.550 7.920,334.488 8.020 C 334.427 8.119,333.782 8.189,332.989 8.184 C 332.214 8.179,331.551 8.250,331.493 8.345 C 331.435 8.438,330.759 8.516,329.989 8.518 C 329.220 8.519,328.544 8.595,328.488 8.686 C 328.432 8.777,327.683 8.851,326.824 8.849 C 325.956 8.848,325.215 8.921,325.158 9.014 C 325.101 9.106,324.425 9.183,323.656 9.184 C 322.886 9.186,322.211 9.262,322.155 9.353 C 322.098 9.444,321.349 9.517,320.490 9.516 C 319.622 9.514,318.882 9.588,318.825 9.681 C 318.768 9.773,318.092 9.849,317.322 9.851 C 316.553 9.853,315.878 9.928,315.822 10.018 C 315.767 10.108,315.092 10.183,314.322 10.184 C 313.553 10.186,312.878 10.262,312.821 10.353 C 312.765 10.444,312.016 10.517,311.157 10.516 C 310.289 10.514,309.549 10.588,309.491 10.681 C 309.435 10.773,308.759 10.849,307.989 10.851 C 307.220 10.853,306.544 10.928,306.488 11.019 C 306.432 11.111,305.683 11.184,304.824 11.183 C 303.956 11.181,303.215 11.254,303.158 11.347 C 303.101 11.439,302.425 11.516,301.656 11.518 C 300.886 11.519,300.211 11.594,300.156 11.684 C 300.100 11.774,299.425 11.849,298.656 11.851 C 297.886 11.853,297.211 11.928,297.155 12.019 C 297.098 12.111,296.349 12.184,295.490 12.183 C 294.622 12.181,293.882 12.254,293.825 12.347 C 293.768 12.439,293.092 12.516,292.322 12.518 C 291.553 12.519,290.878 12.595,290.821 12.686 C 290.765 12.777,290.016 12.851,289.157 12.849 C 288.289 12.848,287.549 12.921,287.491 13.014 C 287.435 13.106,286.759 13.183,285.989 13.184 C 285.220 13.186,284.544 13.262,284.488 13.353 C 284.432 13.444,283.683 13.517,282.824 13.516 C 281.920 13.514,281.216 13.586,281.154 13.687 C 281.093 13.785,280.449 13.856,279.656 13.851 C 278.881 13.846,278.218 13.917,278.160 14.011 C 278.102 14.105,277.425 14.183,276.656 14.184 C 275.886 14.186,275.211 14.262,275.155 14.353 C 275.098 14.444,274.349 14.517,273.490 14.516 C 272.622 14.514,271.882 14.588,271.825 14.681 C 271.768 14.773,271.092 14.849,270.322 14.851 C 269.553 14.853,268.878 14.928,268.821 15.019 C 268.765 15.111,268.016 15.184,267.157 15.183 C 266.289 15.181,265.549 15.254,265.491 15.347 C 265.435 15.439,264.759 15.516,263.989 15.518 C 263.220 15.519,262.545 15.594,262.489 15.684 C 262.434 15.774,261.759 15.849,260.989 15.851 C 260.220 15.853,259.544 15.928,259.488 16.019 C 259.432 16.111,258.683 16.184,257.824 16.183 C 256.956 16.181,256.215 16.254,256.158 16.347 C 256.101 16.439,255.425 16.516,254.656 16.518 C 253.886 16.519,253.211 16.595,253.155 16.686 C 253.098 16.777,252.349 16.851,251.490 16.849 C 250.622 16.848,249.882 16.921,249.825 17.014 C 249.768 17.106,249.092 17.183,248.322 17.184 C 247.553 17.186,246.878 17.261,246.822 17.351 C 246.767 17.441,246.092 17.516,245.322 17.518 C 244.553 17.519,243.878 17.595,243.821 17.686 C 243.765 17.777,243.016 17.851,242.157 17.849 C 241.289 17.848,240.549 17.921,240.491 18.014 C 240.435 18.106,239.759 18.183,238.989 18.184 C 238.220 18.186,237.544 18.262,237.488 18.353 C 237.432 18.444,236.683 18.517,235.824 18.516 C 234.956 18.514,234.215 18.588,234.158 18.681 C 234.101 18.773,233.425 18.849,232.656 18.851 C 231.886 18.853,231.211 18.928,231.155 19.019 C 231.098 19.111,230.349 19.184,229.490 19.183 C 228.587 19.181,227.883 19.253,227.821 19.353 C 227.760 19.452,227.115 19.522,226.323 19.517 C 225.547 19.512,224.885 19.583,224.826 19.678 C 224.769 19.771,224.092 19.849,223.322 19.851 C 222.553 19.853,221.878 19.928,221.821 20.019 C 221.765 20.111,221.016 20.184,220.157 20.183 C 219.289 20.181,218.549 20.254,218.491 20.347 C 218.435 20.439,217.759 20.516,216.989 20.518 C 216.220 20.519,215.544 20.595,215.488 20.686 C 215.432 20.777,214.683 20.851,213.824 20.849 C 212.956 20.848,212.215 20.921,212.158 21.014 C 212.101 21.106,211.425 21.183,210.656 21.184 C 209.886 21.186,209.211 21.261,209.156 21.351 C 209.100 21.441,208.425 21.516,207.656 21.518 C 206.886 21.519,206.211 21.595,206.155 21.686 C 206.098 21.777,205.349 21.851,204.490 21.849 C 203.611 21.848,202.882 21.921,202.824 22.016 C 202.683 22.243,197.317 22.243,197.176 22.016 C 197.118 21.921,196.389 21.848,195.510 21.849 C 194.651 21.851,193.902 21.777,193.845 21.686 C 193.789 21.595,193.114 21.519,192.344 21.518 C 191.575 21.516,190.900 21.441,190.844 21.351 C 190.789 21.261,190.114 21.186,189.344 21.184 C 188.575 21.183,187.899 21.106,187.842 21.014 C 187.785 20.921,187.044 20.848,186.176 20.849 C 185.317 20.851,184.568 20.777,184.512 20.686 C 184.456 20.595,183.780 20.519,183.011 20.518 C 182.241 20.516,181.565 20.439,181.509 20.347 C 181.451 20.254,180.711 20.181,179.843 20.183 C 178.984 20.184,178.235 20.111,178.179 20.019 C 178.122 19.928,177.447 19.853,176.678 19.851 C 175.908 19.849,175.231 19.771,175.174 19.678 C 175.115 19.583,174.453 19.512,173.677 19.517 C 172.885 19.522,172.240 19.452,172.179 19.353 C 172.117 19.253,171.413 19.181,170.510 19.183 C 169.651 19.184,168.902 19.111,168.845 19.019 C 168.789 18.928,168.114 18.853,167.344 18.851 C 166.575 18.849,165.899 18.773,165.842 18.681 C 165.785 18.588,165.044 18.514,164.176 18.516 C 163.317 18.517,162.568 18.444,162.512 18.353 C 162.456 18.262,161.780 18.186,161.011 18.184 C 160.241 18.183,159.565 18.106,159.509 18.014 C 159.451 17.921,158.711 17.848,157.843 17.849 C 156.984 17.851,156.235 17.777,156.179 17.686 C 156.122 17.595,155.447 17.519,154.678 17.518 C 153.908 17.516,153.233 17.441,153.178 17.351 C 153.122 17.261,152.447 17.186,151.678 17.184 C 150.908 17.183,150.232 17.106,150.175 17.014 C 150.118 16.921,149.378 16.848,148.510 16.849 C 147.651 16.851,146.902 16.777,146.845 16.686 C 146.789 16.595,146.114 16.519,145.344 16.518 C 144.575 16.516,143.899 16.439,143.842 16.347 C 143.785 16.254,143.044 16.181,142.176 16.183 C 141.317 16.184,140.568 16.111,140.512 16.019 C 140.456 15.928,139.780 15.853,139.011 15.851 C 138.241 15.849,137.566 15.774,137.511 15.684 C 137.455 15.594,136.780 15.519,136.011 15.518 C 135.241 15.516,134.565 15.439,134.509 15.347 C 134.451 15.254,133.711 15.181,132.843 15.183 C 131.984 15.184,131.235 15.111,131.179 15.019 C 131.122 14.928,130.447 14.853,129.678 14.851 C 128.908 14.849,128.232 14.773,128.175 14.681 C 128.118 14.588,127.378 14.514,126.510 14.516 C 125.651 14.517,124.902 14.444,124.845 14.353 C 124.789 14.262,124.114 14.186,123.344 14.184 C 122.575 14.183,121.898 14.105,121.840 14.011 C 121.782 13.917,121.119 13.846,120.344 13.851 C 119.551 13.856,118.907 13.785,118.846 13.687 C 118.784 13.586,118.080 13.514,117.176 13.516 C 116.317 13.517,115.568 13.444,115.512 13.353 C 115.456 13.262,114.780 13.186,114.011 13.184 C 113.241 13.183,112.565 13.106,112.509 13.014 C 112.451 12.921,111.711 12.848,110.843 12.849 C 109.984 12.851,109.235 12.777,109.179 12.686 C 109.122 12.595,108.447 12.519,107.678 12.518 C 106.908 12.516,106.232 12.439,106.175 12.347 C 106.118 12.254,105.378 12.181,104.510 12.183 C 103.651 12.184,102.902 12.111,102.845 12.019 C 102.789 11.928,102.114 11.853,101.344 11.851 C 100.575 11.849,99.900 11.774,99.844 11.684 C 99.789 11.594,99.114 11.519,98.344 11.518 C 97.575 11.516,96.899 11.439,96.842 11.347 C 96.785 11.254,96.044 11.181,95.176 11.183 C 94.317 11.184,93.568 11.111,93.512 11.019 C 93.456 10.928,92.780 10.853,92.011 10.851 C 91.241 10.849,90.565 10.773,90.509 10.681 C 90.451 10.588,89.711 10.514,88.843 10.516 C 87.984 10.517,87.235 10.444,87.179 10.353 C 87.122 10.262,86.447 10.186,85.678 10.184 C 84.908 10.183,84.233 10.108,84.178 10.018 C 84.122 9.928,83.447 9.853,82.678 9.851 C 81.908 9.849,81.232 9.773,81.175 9.681 C 81.118 9.588,80.378 9.514,79.510 9.516 C 78.651 9.517,77.902 9.444,77.845 9.353 C 77.789 9.262,77.114 9.186,76.344 9.184 C 75.575 9.183,74.899 9.106,74.842 9.014 C 74.785 8.921,74.044 8.848,73.176 8.849 C 72.317 8.851,71.568 8.777,71.512 8.686 C 71.456 8.595,70.780 8.519,70.011 8.518 C 69.241 8.516,68.565 8.438,68.507 8.345 C 68.449 8.250,67.786 8.179,67.011 8.184 C 66.218 8.189,65.573 8.119,65.512 8.020 C 65.450 7.920,64.747 7.848,63.843 7.849 C 62.984 7.851,62.235 7.777,62.179 7.686 C 62.122 7.595,61.447 7.519,60.678 7.518 C 59.908 7.516,59.232 7.439,59.175 7.347 C 59.118 7.254,58.378 7.181,57.510 7.183 C 56.651 7.184,55.902 7.111,55.845 7.019 C 55.789 6.928,55.114 6.853,54.344 6.851 C 53.575 6.849,52.899 6.773,52.842 6.681 C 52.785 6.588,52.044 6.514,51.176 6.516 C 50.317 6.517,49.568 6.444,49.512 6.353 C 49.456 6.262,48.780 6.186,48.011 6.184 C 47.241 6.183,46.566 6.108,46.511 6.018 C 46.455 5.928,45.780 5.853,45.011 5.851 C 44.241 5.849,43.565 5.773,43.509 5.681 C 43.451 5.588,42.711 5.514,41.843 5.516 C 40.984 5.517,40.235 5.444,40.179 5.353 C 40.122 5.262,39.447 5.186,38.678 5.184 C 37.908 5.183,37.232 5.106,37.175 5.014 C 37.118 4.921,36.378 4.848,35.510 4.849 C 34.651 4.851,33.902 4.777,33.845 4.686 C 33.789 4.595,33.114 4.519,32.344 4.518 C 31.575 4.516,30.900 4.441,30.844 4.351 C 30.789 4.261,30.114 4.186,29.344 4.184 C 28.575 4.183,27.899 4.106,27.842 4.014 C 27.785 3.921,27.044 3.848,26.176 3.849 C 25.317 3.851,24.568 3.777,24.512 3.686 C 24.456 3.595,23.780 3.519,23.011 3.518 C 22.241 3.516,21.565 3.439,21.509 3.347 C 21.451 3.254,20.711 3.181,19.843 3.183 C 18.984 3.184,18.235 3.111,18.179 3.019 C 18.122 2.928,17.447 2.853,16.678 2.851 C 15.908 2.849,15.231 2.771,15.174 2.678 C 15.115 2.583,14.453 2.512,13.677 2.517 C 12.885 2.522,12.240 2.452,12.179 2.353 C 12.117 2.253,11.413 2.181,10.510 2.183 C 9.651 2.184,8.902 2.111,8.845 2.019 C 8.789 1.928,8.114 1.853,7.344 1.851 C 6.575 1.849,5.899 1.773,5.842 1.681 C 5.785 1.588,5.044 1.514,4.176 1.516 C 3.304 1.517,2.569 1.444,2.511 1.350 C 2.453 1.258,1.865 1.184,1.203 1.186 L 0.000 1.190 0.000 11.928 " stroke="none" fill="#535353" fill-rule="evenodd"></path><path id="path1" d="" stroke="none" fill="#100f4f4" fill-rule="evenodd"></path><path id="path2" d="" stroke="none" fill="#100f4f4" fill-rule="evenodd"></path><path id="path3" d="" stroke="none" fill="#100f4f4" fill-rule="evenodd"></path><path id="path4" d="" stroke="none" fill="#100f4f4" fill-rule="evenodd"></path></g></svg>