
<svg xmlns="http://www.w3.org/2000/svg" xmlns:xlink="http://www.w3.org/1999/xlink" width="50pt" height="50pt" viewBox="0 0 50 50" version="1.1">
<g id="surface1">
<path style="fill: #fff" d="M 47.980469 22.980469 L 2.019531 22.980469 C 0.90625 22.980469 0 23.882812 0 25 C 0 26.117188 0.90625 27.019531 2.019531 27.019531 L 47.980469 27.019531 C 49.097656 27.019531 50 26.117188 50 25 C 50 23.882812 49.097656 22.980469 47.980469 22.980469 Z M 47.980469 22.980469 "/>
<path style="fill: #fff" d="M 47.980469 7.660156 L 2.019531 7.660156 C 0.90625 7.660156 0 8.5625 0 9.679688 C 0 10.796875 0.90625 11.699219 2.019531 11.699219 L 47.980469 11.699219 C 49.097656 11.699219 50 10.796875 50 9.679688 C 50 8.5625 49.097656 7.660156 47.980469 7.660156 Z M 47.980469 7.660156 "/>
<path style="fill: #fff" d="M 47.980469 38.300781 L 2.019531 38.300781 C 0.90625 38.300781 0 39.203125 0 40.320312 C 0 41.4375 0.90625 42.339844 2.019531 42.339844 L 47.980469 42.339844 C 49.097656 42.339844 50 41.4375 50 40.320312 C 50 39.203125 49.097656 38.300781 47.980469 38.300781 Z M 47.980469 38.300781 "/>
</g>
</svg>
